[IMG]http://yuq.me/users/18/139/7UV6aJ9Mfv.png[/IMG]

General
Complete name                            : Jason Derulo - The Other Side [Music Video] 1080p [Sbyky].mp4
Format                                   : MPEG-4
Format profile                           : Base Media / Version 2
Codec ID                                 : mp42
File size                                : 128 MiB
Duration                                 : 4mn 19s
Overall bit rate mode                    : Variable
Overall bit rate                         : 4 131 Kbps
Encoded date                             : UTC 2013-05-03 05:33:21
Tagged date                              : UTC 2013-05-03 05:33:21

Video
ID                                       : 1
Format                                   : AVC
Format/Info                              : Advanced Video Codec
Format profile                           : High@L4.0
Format settings, CABAC                   : Yes
Format settings, ReFrames                : 1 frame
Format settings, GOP                     : M=1, N=48
Codec ID                                 : avc1
Codec ID/Info                            : Advanced Video Coding
Duration                                 : 4mn 19s
Bit rate                                 : 3 936 Kbps
Maximum bit rate                         : 12.5 Mbps
Width                                    : 1 920 pixels
Height                                   : 1 080 pixels
Display aspect ratio                     : 16:9
Frame rate mode                          : Constant
Frame rate                               : 23.976 fps
Color space                              : YUV
Chroma subsampling                       : 4:2:0
Bit depth                                : 8 bits
Scan type                                : Progressive
Bits/(Pixel*Frame)                       : 0.079
Stream size                              : 122 MiB (95%)
Tagged date                              : UTC 2013-05-03 05:33:33

Audio
ID                                       : 2
Format                                   : AAC
Format/Info                              : Advanced Audio Codec
Format profile                           : LC
Codec ID                                 : 40
Duration                                 : 4mn 19s
Bit rate mode                            : Variable
Bit rate                                 : 192 Kbps
Maximum bit rate                         : 201 Kbps
Channel(s)                               : 2 channels
Channel positions                        : Front: L R
Sampling rate                            : 44.1 KHz
Compression mode                         : Lossy
Stream size                              : 5.95 MiB (5%)
Title                                    : IsoMedia File Produced by Google, 5-11-2011
Encoded date                             : UTC 2013-05-03 05:33:30
Tagged date                              : UTC 2013-05-03 05:33:33

Shared By Sbyky
[IMG]http://www.shotpix.com/images/76014917432015785852.gif[/IMG]
[IMG]http://www.shotpix.com/images/54100788659511547411.gif[/IMG]